<svg xmlns="http://www.w3.org/2000/svg" fill="none" viewBox="1.51 22.7 148.8 35.3">
<path d="M19.2233 51.0191C17.2563 51.0191 15.5163 50.5778 14.0033 49.6952C12.4903 48.7874 11.2924 47.577 10.4098 46.0639C9.52721 44.5257 9.08591 42.8109 9.08591 40.9196C9.08591 39.0283 9.52721 37.3261 10.4098 35.813C11.2924 34.2748 12.4903 33.0643 14.0033 32.1817C15.5163 31.2739 17.2563 30.82 19.2233 30.82C21.1903 30.82 22.9303 31.2739 24.4433 32.1817C25.9816 33.0643 27.1794 34.2622 28.0368 35.7752C28.9194 37.2883 29.3607 39.003 29.3607 40.9196C29.3607 42.8109 28.9194 44.5257 28.0368 46.0639C27.1794 47.577 25.9816 48.7874 24.4433 49.6952C22.9303 50.5778 21.1903 51.0191 19.2233 51.0191ZM19.2233 48.0309C20.5598 48.0309 21.7198 47.7157 22.7033 47.0852C23.6868 46.4548 24.4559 45.61 25.0107 44.5509C25.5655 43.4665 25.8429 42.2561 25.8429 40.9196C25.8429 39.583 25.5655 38.3852 25.0107 37.3261C24.4559 36.2417 23.6868 35.3843 22.7033 34.7539C21.7198 34.1235 20.5598 33.8083 19.2233 33.8083C17.912 33.8083 16.752 34.1235 15.7433 34.7539C14.7598 35.3843 13.9907 36.2417 13.4359 37.3261C12.8811 38.3852 12.6037 39.583 12.6037 40.9196C12.6037 42.2561 12.8811 43.4665 13.4359 44.5509C13.9907 45.61 14.7598 46.4548 15.7433 47.0852C16.752 47.7157 17.912 48.0309 19.2233 48.0309Z" fill="#FF6467"/>
<path d="M36.6863 51.0191C35.2237 51.0191 33.8872 50.7922 32.6768 50.3383C31.4663 49.8591 30.4198 49.1657 29.5372 48.2578C28.6546 47.35 27.9611 46.2657 27.4568 45.0048C26.9776 43.7187 26.7381 42.2813 26.7381 40.6926C26.7381 38.6752 27.1416 36.9352 27.9485 35.4726C28.7807 33.9848 29.9029 32.8374 31.315 32.0304C32.7524 31.2235 34.3537 30.82 36.1189 30.82C37.1024 30.82 38.0355 30.9839 38.9181 31.3117C39.8259 31.6396 40.6329 32.0935 41.3389 32.6735C42.045 33.2535 42.5998 33.9343 43.0033 34.7161H43.0789V22.9522H46.5589V40.8061C46.5589 42.9496 46.1176 44.7904 45.235 46.3287C44.3776 47.8417 43.205 49.0017 41.7172 49.8087C40.2546 50.6157 38.5776 51.0191 36.6863 51.0191ZM36.6863 48.0309C37.8716 48.0309 38.9433 47.7409 39.9016 47.1609C40.8598 46.5809 41.6163 45.7613 42.1711 44.7022C42.7511 43.643 43.0411 42.3948 43.0411 40.9574C43.0411 39.4948 42.7511 38.2339 42.1711 37.1748C41.6163 36.0904 40.8598 35.2583 39.9016 34.6783C38.9433 34.0983 37.8589 33.8083 36.6485 33.8083C35.4633 33.8083 34.3789 34.1109 33.3955 34.7161C32.4372 35.3213 31.6681 36.1535 31.0881 37.2126C30.5333 38.2717 30.2559 39.5074 30.2559 40.9196C30.2559 42.3822 30.5459 43.643 31.1259 44.7022C31.7059 45.7613 32.475 46.5809 33.4333 47.1609C34.4168 47.7409 35.5011 48.0309 36.6863 48.0309Z" fill="#FF6467"/>
<path d="M55.2463 50.5652C53.1281 50.5652 51.2494 50.1743 49.6103 49.3926C47.9711 48.5857 46.685 47.4635 45.752 46.0261C44.8442 44.5635 44.3903 42.8613 44.3903 40.9196C44.3903 39.003 44.7811 37.2883 45.5629 35.7752C46.3446 34.237 47.4289 33.0265 48.8159 32.1439C50.2029 31.2613 51.8168 30.82 53.6576 30.82C55.6498 30.82 57.3016 31.2487 58.6129 32.1061C59.9494 32.9635 60.9455 34.1235 61.6011 35.5861C62.2568 37.0235 62.5846 38.6374 62.5846 40.4278C62.5846 40.7052 62.572 40.9952 62.5468 41.2978C62.5468 41.6004 62.5216 41.8652 62.4711 42.0922H48.0972C48.2233 43.2774 48.6142 44.2861 49.2698 45.1183C49.9255 45.9252 50.7576 46.543 51.7663 46.9717C52.8003 47.3752 53.935 47.577 55.1707 47.577H60.2016V50.5652H55.2463ZM48.0594 39.6335H59.0668C59.0668 39.1543 59.0163 38.65 58.9155 38.1204C58.8146 37.5657 58.6381 37.0361 58.3859 36.5317C58.1337 36.0022 57.7933 35.5357 57.3646 35.1322C56.9611 34.7035 56.4442 34.363 55.8137 34.1109C55.2085 33.8587 54.4898 33.7326 53.6576 33.7326C52.775 33.7326 51.9933 33.9091 51.3124 34.2622C50.6568 34.59 50.0894 35.0439 49.6103 35.6239C49.1311 36.1787 48.7655 36.8091 48.5133 37.5152C48.2611 38.2213 48.1098 38.9274 48.0594 39.6335Z" fill="#FF6467"/>
<path d="M78.7868 50.5652C77.3494 50.5652 76.1011 50.2626 75.042 49.6574C74.0081 49.027 73.2011 48.1822 72.6211 47.123C72.0663 46.0387 71.7889 44.8283 71.7889 43.4917V27.3022H63.732V24.087H83.4772V27.3022H75.4202V43.9457C75.4202 44.9291 75.7229 45.7487 76.3281 46.4043C76.9585 47.0348 77.7907 47.35 78.8246 47.35H80.5646V50.5652H78.7868Z" fill="#FF6467"/>
<path d="M86.2511 51.0191C84.385 51.0191 82.7711 50.5778 81.4094 49.6952C80.0476 48.7874 79.0011 47.5643 78.2698 46.0261C77.5385 44.4878 77.1729 42.7857 77.1729 40.9196C77.1729 39.0283 77.5763 37.3261 78.3833 35.813C79.1903 34.2748 80.3503 33.0643 81.8633 32.1817C83.3763 31.2739 85.192 30.82 87.3103 30.82C89.3529 30.82 91.1055 31.2613 92.5681 32.1439C94.0307 33.0265 95.1529 34.2243 95.9346 35.7374C96.7416 37.2504 97.145 38.94 97.145 40.8061V50.5652H93.6272V46.6313H93.5516C93.1733 47.3626 92.6563 48.0687 92.0007 48.7496C91.3703 49.4052 90.5759 49.9474 89.6176 50.3761C88.6594 50.8048 87.5372 51.0191 86.2511 51.0191ZM87.1589 48.0309C88.4198 48.0309 89.5294 47.7283 90.4876 47.123C91.4711 46.4926 92.2276 45.6352 92.7572 44.5509C93.312 43.4413 93.5894 42.2057 93.5894 40.8439C93.5894 39.5074 93.3246 38.3096 92.795 37.2504C92.2907 36.1913 91.5594 35.3591 90.6011 34.7539C89.6429 34.1235 88.5207 33.8083 87.2346 33.8083C85.8729 33.8083 84.7003 34.1235 83.7168 34.7539C82.7585 35.3843 82.0146 36.2417 81.485 37.3261C80.9807 38.3852 80.7285 39.5957 80.7285 40.9574C80.7285 42.2687 80.9807 43.4665 81.485 44.5509C81.9894 45.61 82.7207 46.4548 83.6789 47.0852C84.6372 47.7157 85.7972 48.0309 87.1589 48.0309Z" fill="#FF6467"/>
<path d="M98.4059 50.5652V22.9522H101.886V50.5652H98.4059Z" fill="#FF6467"/>
<path d="M103.449 50.5652V22.9522H106.929V39.3687H112.225L117.294 31.2739H121.152L115.667 39.8983C117.483 40.4278 118.895 41.4239 119.904 42.8865C120.938 44.3239 121.455 46.0009 121.455 47.9174V50.5652H117.937V47.9174C117.937 46.8583 117.697 45.9126 117.218 45.0804C116.764 44.2483 116.121 43.5926 115.289 43.1135C114.457 42.6091 113.499 42.357 112.414 42.357H106.929V50.5652H103.449Z" fill="#FF6467"/>
<path d="M124.544 58V53.713H139.825C141.002 53.713 142.011 53.4441 142.852 52.9061C143.692 52.3345 144.348 51.6116 144.819 50.7374C145.289 49.8632 145.525 48.9386 145.525 47.9635C145.525 46.9548 145.289 46.0301 144.819 45.1896C144.381 44.3154 143.743 43.6261 142.902 43.1217C142.095 42.5838 141.103 42.3148 139.926 42.3148H133.269C131.285 42.3148 129.537 41.9113 128.024 41.1043C126.511 40.2638 125.317 39.1206 124.443 37.6748C123.602 36.1954 123.182 34.531 123.182 32.6817C123.182 30.7988 123.585 29.1009 124.392 27.5878C125.233 26.0748 126.393 24.8812 127.872 24.007C129.385 23.1328 131.117 22.6956 133.067 22.6956H148.046V26.9826H133.521C132.412 26.9826 131.436 27.2516 130.596 27.7896C129.755 28.2939 129.116 28.9664 128.679 29.807C128.242 30.6139 128.024 31.4881 128.024 32.4296C128.024 33.3374 128.225 34.2116 128.629 35.0522C129.066 35.8591 129.688 36.5148 130.495 37.0191C131.336 37.5235 132.294 37.7757 133.37 37.7757H140.179C142.297 37.7757 144.112 38.1959 145.625 39.0365C147.139 39.8771 148.299 41.0203 149.105 42.4661C149.912 43.9119 150.316 45.5594 150.316 47.4087C150.316 49.4597 149.896 51.2922 149.055 52.9061C148.248 54.4864 147.088 55.7304 145.575 56.6383C144.062 57.5461 142.33 58 140.38 58H124.544Z" fill="#FF6467"/>
<path d="M19.5687 58C16.8788 58 14.4243 57.5461 12.2052 56.6383C9.98609 55.6968 8.06957 54.4191 6.45565 52.8052C4.87536 51.1913 3.64812 49.3252 2.77391 47.207C1.93333 45.0551 1.51304 42.7687 1.51304 40.3478C1.51304 37.927 1.93333 35.6574 2.77391 33.5391C3.64812 31.3872 4.87536 29.5043 6.45565 27.8904C8.06957 26.2765 9.98609 25.0156 12.2052 24.1078C14.4243 23.1664 16.8788 22.6956 19.5687 22.6956H24.1078V26.9826H19.72C17.8035 26.9826 16.0383 27.3188 14.4243 27.9913C12.8104 28.6638 11.3983 29.6052 10.1878 30.8156C9.01102 32.0261 8.08638 33.4383 7.41391 35.0522C6.74145 36.6661 6.40522 38.4313 6.40522 40.3478C6.40522 42.2307 6.74145 43.9959 7.41391 45.6435C8.08638 47.2574 9.01102 48.6696 10.1878 49.88C11.3983 51.0904 12.8104 52.0319 14.4243 52.7043C16.0383 53.3768 17.8035 53.713 19.72 53.713H24.1078V58H19.5687Z" fill="#FF6467"/>
<line x1="19.9924" y1="55.8565" x2="125.905" y2="55.8565" stroke="#FF6467" stroke-width="4.28696"/>
<line x1="123.384" y1="49.5522" x2="141.036" y2="49.5522" stroke="#FF6467" stroke-width="1.76522"/>
</svg>